<svg width="4604" height="793" xmlns="http://www.w3.org/2000/svg" xmlns:xlink="http://www.w3.org/1999/xlink" xml:space="preserve" overflow="hidden"><defs><clipPath id="clip0"><rect x="2462" y="2282" width="4604" height="793"/></clipPath></defs><g clip-path="url(#clip0)" transform="translate(-2462 -2282)"><path d="M6556.55 3004 6417.87 3004 6412.98 3004 6409.05 3004 6404.16 3004 6380.97 3004 6380.89 3004 6378.31 3004 6376.08 3004 6376 3004 6373.42 3004 6372.07 3004 6371.36 3004 6367.18 3004 6366.47 3004 6349.22 3004C6333.01 3004 6318.81 3000.9 6306.62 2994.7 6294.42 2988.49 6284.7 2980.15 6277.46 2969.65 6270.54 2959.15 6266.49 2946.75 6265.31 2932.43 6264.13 2918.12 6266.3 2902.85 6271.81 2886.63L6432.24 2416.68C6438.56 2398.07 6448.07 2380.55 6460.75 2364.12 6473.44 2347.7 6488.03 2333.46 6504.52 2321.42 6520.64 2309.37 6538.03 2299.79 6556.67 2292.68 6575.32 2285.56 6593.94 2282 6612.54 2282L6633.52 2282 6637.94 2282 6641.5 2282 6645.92 2282 6698.62 2282 6703.05 2282 6718.65 2282 6723.08 2282 6724.95 2282 6729.37 2282 6732.08 2282 6736.51 2282 6752.11 2282 6756.54 2282 6758.41 2282 6762.83 2282 6774.45 2282 6849.12 2282 6913.13 2282 6918.02 2282 6921.95 2282 6926.84 2282 6950.03 2282 6950.11 2282 6952.69 2282 6954.92 2282 6955 2282 6957.58 2282 6958.93 2282 6959.64 2282 6963.82 2282 6964.53 2282 6981.78 2282C6997.99 2282 7012.19 2285.1 7024.38 2291.3 7036.58 2297.51 7046.3 2305.86 7053.54 2316.35 7060.46 2326.85 7064.51 2339.25 7065.69 2353.57 7066.87 2367.88 7064.7 2383.15 7059.19 2399.37L6898.84 2869.32C6892.52 2887.93 6883.01 2905.45 6870.33 2921.88 6857.64 2938.3 6843.05 2952.54 6826.56 2964.58 6810.43 2976.63 6793.05 2986.21 6774.41 2993.32 6755.76 3000.44 6737.14 3004 6718.54 3004L6697.56 3004 6693.14 3004 6689.58 3004 6685.16 3004 6632.46 3004 6628.03 3004 6612.43 3004 6608 3004 6606.13 3004 6601.71 3004 6599 3004 6594.57 3004 6578.97 3004 6574.54 3004 6572.67 3004 6568.25 3004 6556.55 3004 6556.55 3004Z" fill="#BC142C" fill-rule="evenodd"/><path d="M356.618 324.362 403.045 324.362 526.426 324.362 572.852 324.362 491.487 84.9134C487.483 73.1298 481.482 62.0966 473.483 51.8148 465.483 41.5326 456.375 32.579 446.159 24.9542 435.637 17.0981 424.488 10.975 412.715 6.58482 400.941 2.19462 389.163 0 377.381 0L330.954 0 124.099 0 101.778 0 77.6715 0 55.3509 0 0 0 9.18594 27.0335 46.1406 27.0335 86.8825 27.0335 92.5671 27.0335 133.309 27.0335 216.426 27.0335C221.739 27.0335 227.117 28.0724 232.56 30.1501 238.001 32.228 243.198 35.1152 248.151 38.8122 252.793 42.2746 256.958 46.372 260.645 51.105 264.333 55.8381 267.079 60.8601 268.884 66.1706ZM279.619 572 326.046 572 532.901 572 555.222 572 579.328 572 601.649 572 657 572 647.814 544.967 610.859 544.967 570.117 544.967 564.433 544.967 523.691 544.967 440.574 544.967C435.261 544.967 429.883 543.928 424.44 541.85 418.999 539.772 413.802 536.885 408.849 533.188 404.207 529.725 400.042 525.628 396.354 520.895 392.667 516.162 389.921 511.14 388.116 505.829L300.382 247.638 253.955 247.638 130.574 247.638 84.1477 247.638 165.513 487.087C169.517 498.87 175.518 509.903 183.517 520.185 191.517 530.467 200.624 539.421 210.841 547.046 221.363 554.902 232.511 561.025 244.285 565.415 256.058 569.805 267.837 572 279.619 572Z" fill="#F4F2F4" fill-rule="evenodd" transform="matrix(-1 0 0 1 6995 2357)"/><path d="M5963.81 3004 5963.37 3004 5961.49 3004 5957.06 3004 5945.33 3004 5934 3004 6181.19 2282 6211 2282Z" fill="#F4F2F4" fill-rule="evenodd"/><path d="M3612.29 2995.18 3777.81 2995.18C3779.2 2995.18 3779.66 2995.88 3779.19 2997.27L3753.48 3072.92C3753.01 3074.31 3752.08 3075 3750.69 3075L3585.16 3075C3583.78 3075 3583.32 3074.31 3583.79 3072.92L3609.5 2997.27C3609.97 2995.88 3610.9 2995.18 3612.29 2995.18ZM2760.85 2995.18 2926.37 2995.18C2927.76 2995.18 2928.22 2995.88 2927.75 2997.27L2902.04 3072.92C2901.57 3074.31 2900.64 3075 2899.25 3075L2733.73 3075C2732.11 3075 2731.53 3074.31 2732 3072.92L2757.71 2997.27C2758.18 2995.88 2759.23 2995.18 2760.85 2995.18ZM2541.19 2995.18 2706.71 2995.18C2708.1 2995.18 2708.56 2995.88 2708.09 2997.27L2682.38 3072.92C2681.91 3074.31 2680.98 3075 2679.59 3075L2514.06 3075C2512.68 3075 2512.22 3074.31 2512.69 3072.92L2538.4 2997.27C2538.87 2995.88 2539.8 2995.18 2541.19 2995.18ZM3124.12 2528.13 3205.33 2528.13 3242.94 2528.13 3395.69 2528.13C3407.49 2528.13 3417.77 2530.38 3426.53 2534.89 3435.29 2539.4 3442.31 2545.48 3447.58 2553.11 3452.62 2560.75 3455.63 2569.77 3456.6 2580.18 3457.58 2590.59 3456.06 2601.7 3452.04 2613.49L3367.13 2863.35C3365.25 2868.91 3364.48 2874.05 3364.84 2878.8 3365.19 2883.54 3366.51 2887.65 3368.8 2891.12 3371.1 2894.59 3374.26 2897.36 3378.29 2899.44 3382.33 2901.53 3387.12 2902.57 3392.68 2902.57L3408.02 2902.57 3429.69 2902.57 3463.09 2902.57 3496.47 2902.57 3501.27 2902.57 3556.98 2902.57 3568.05 2902.57 3771.68 2902.57C3777.23 2902.57 3782.73 2901.53 3788.18 2899.44 3793.63 2897.36 3798.68 2894.59 3803.32 2891.12 3807.98 2887.65 3812.15 2883.54 3815.84 2878.8 3819.53 2874.05 3822.32 2868.91 3824.21 2863.35L3915.61 2594.41C3917.5 2588.86 3918.21 2583.71 3917.73 2578.97 3917.26 2574.22 3915.88 2570.12 3913.59 2566.65 3911.3 2563.18 3908.14 2560.4 3904.1 2558.32 3900.07 2556.23 3895.27 2555.19 3889.72 2555.19L3744.59 2555.19 3713.67 2555.19 3678.34 2555.19 3673.38 2555.19 3639.63 2555.19 3607.13 2555.19 3568.42 2555.19 3578.15 2528.13 3616.33 2528.13 3649.36 2528.13 3683.11 2528.13 3687.55 2528.13 3725.88 2528.13 3754.33 2528.13 4023.5 2528.13C4035.3 2528.13 4045.58 2530.38 4054.34 2534.89 4063.1 2539.4 4070.12 2545.48 4075.39 2553.11 4080.43 2560.75 4083.44 2569.77 4084.41 2580.18 4085.38 2590.59 4083.86 2601.7 4079.85 2613.49L4001.43 2844.27C3997.42 2856.07 3991.47 2867.11 3983.57 2877.41 3975.68 2887.7 3966.62 2896.67 3956.39 2904.3 3946.08 2912.17 3935.01 2918.36 3923.18 2922.87 3911.36 2927.38 3899.54 2929.64 3887.75 2929.64L3558.31 2929.64 3544.77 2929.64 3492.07 2929.64 3486.74 2929.64 3453.35 2929.64 3420.49 2929.64 3395.81 2929.64 3381.78 2929.64 3359.26 2929.64 3258.55 2929.64C3246.75 2929.64 3236.41 2927.38 3227.54 2922.87 3218.66 2918.37 3211.7 2912.3 3206.66 2904.67 3201.61 2897.04 3198.6 2888.03 3197.62 2877.63 3196.65 2867.23 3198.16 2856.14 3202.17 2844.35L3289.59 2587.09C3291.08 2582.7 3291.69 2578.54 3291.41 2574.61 3291.12 2570.68 3290.1 2567.21 3288.34 2564.21 3286.28 2561.43 3283.56 2559.24 3280.17 2557.62 3276.79 2556 3272.9 2555.19 3268.5 2555.19L3233.21 2555.19 3232.55 2555.19C3223.53 2555.19 3214.99 2558.2 3206.93 2564.21 3198.56 2570.45 3192.85 2578.08 3189.79 2587.1L3102.46 2844.28C3098.45 2856.07 3092.43 2867.17 3084.38 2877.57 3076.33 2887.98 3067.19 2896.99 3056.97 2904.63 3046.74 2912.26 3035.65 2918.33 3023.71 2922.83 3011.77 2927.34 2999.9 2929.59 2988.1 2929.59L2748.02 2929.59 2705.62 2929.59 2523.2 2929.59C2511.4 2929.59 2501.06 2927.34 2492.18 2922.83 2483.3 2918.32 2476.34 2912.24 2471.31 2904.61 2466.27 2896.97 2463.26 2887.95 2462.29 2877.54 2461.31 2867.13 2462.83 2856.03 2466.84 2844.23L2561.57 2565.26C2562.12 2563.64 2563.09 2562.83 2564.48 2562.83L2731.74 2562.83C2733.13 2562.83 2733.55 2563.64 2733 2565.26L2631.66 2863.66C2629.85 2868.98 2629.18 2874.01 2629.65 2878.76 2630.12 2883.5 2631.5 2887.6 2633.79 2891.08 2636.09 2894.55 2639.25 2897.32 2643.28 2899.4 2647.32 2901.49 2652.11 2902.53 2657.66 2902.53L2715.36 2902.53 2757.75 2902.53 2872.72 2902.53C2878.04 2902.53 2883.42 2901.49 2888.87 2899.4 2894.33 2897.32 2899.49 2894.55 2904.37 2891.08 2909.02 2887.6 2913.19 2883.5 2916.89 2878.76 2920.58 2874.01 2923.33 2868.98 2925.14 2863.66L3010.08 2613.49C3014.1 2601.7 3020.13 2590.59 3028.17 2580.18 3036.22 2569.77 3045.36 2560.75 3055.59 2553.11 3065.82 2545.48 3076.85 2539.4 3088.68 2534.89 3100.5 2530.38 3112.32 2528.13 3124.12 2528.13ZM4268.33 2356.35 4434.2 2356.35C4435.59 2356.35 4436.05 2357.04 4435.58 2358.43L4263.99 2863.35C4262.1 2868.91 4261.39 2874.05 4261.87 2878.8 4262.34 2883.54 4263.72 2887.65 4266.01 2891.12 4268.3 2894.59 4271.46 2897.36 4275.5 2899.44 4279.53 2901.53 4284.33 2902.57 4289.88 2902.57L4292.61 2902.57 4324.23 2902.57 4359.39 2902.57 4360.41 2902.57 4425.26 2902.57C4426.65 2902.57 4427.58 2901.87 4428.04 2900.49L4553.88 2530.21C4554.35 2528.82 4555.28 2528.13 4556.67 2528.13L4722.89 2528.13C4724.28 2528.13 4724.73 2528.82 4724.26 2530.21L4598.43 2900.49C4597.96 2901.87 4598.42 2902.57 4599.81 2902.57L4638.67 2902.57 4665.11 2902.57C4666.5 2902.57 4667.43 2901.87 4667.9 2900.49L4793.73 2530.21C4794.2 2528.82 4795.13 2528.13 4796.52 2528.13L4962.74 2528.13C4964.13 2528.13 4964.58 2528.82 4964.11 2530.21L4838.28 2900.49C4837.81 2901.87 4838.27 2902.57 4839.66 2902.57L4878.52 2902.57 4904.96 2902.57C4906.35 2902.57 4907.28 2901.87 4907.75 2900.49L5033.58 2530.21C5034.05 2528.82 5034.98 2528.13 5036.37 2528.13L5202.59 2528.13C5203.98 2528.13 5204.44 2528.82 5203.96 2530.21L5078.13 2900.49C5077.66 2901.87 5078.12 2902.57 5079.51 2902.57L5107.95 2902.57 5118.37 2902.57 5158.73 2902.57 5174.73 2902.57 5185.15 2902.57 5220.47 2902.57C5226.02 2902.57 5231.52 2901.53 5236.97 2899.44 5242.42 2897.36 5247.47 2894.59 5252.12 2891.12 5256.77 2887.65 5260.94 2883.54 5264.63 2878.8 5268.33 2874.05 5271.12 2868.91 5273 2863.35L5444.6 2358.43C5445.07 2357.04 5446 2356.35 5447.38 2356.35L5613.26 2356.35C5614.65 2356.35 5615.1 2357.04 5614.63 2358.43L5449.53 2844.27C5445.52 2856.07 5439.57 2867.11 5431.67 2877.41 5423.78 2887.7 5414.72 2896.67 5404.49 2904.3 5393.95 2912.17 5382.71 2918.36 5370.76 2922.87 5358.82 2927.38 5346.95 2929.64 5335.15 2929.64L5175.42 2929.64 5165 2929.64 5148.99 2929.64 5109.17 2929.64 5098.75 2929.64 5060.04 2929.64 5048.22 2929.64 4935.57 2929.64 4869.32 2929.64 4829.36 2929.64 4808.37 2929.64 4695.72 2929.64 4629.47 2929.64 4589.51 2929.64 4568.52 2929.64 4350.67 2929.64 4349.66 2929.64 4315.73 2929.64 4282.88 2929.64 4253.82 2929.64 4216.63 2929.64 4177.91 2929.64 4157.49 2929.64C4145.69 2929.64 4135.29 2927.38 4126.3 2922.87 4117.31 2918.36 4110.33 2912.17 4105.37 2904.3 4100.1 2896.67 4096.96 2887.7 4095.94 2877.41 4094.93 2867.11 4096.43 2856.07 4100.44 2844.27L4265.55 2358.43C4266.01 2357.04 4266.94 2356.35 4268.33 2356.35ZM5713.99 2356 5879.86 2356C5881.71 2356 5882.36 2356.81 5881.81 2358.43L5688.52 2927.21C5688.05 2928.59 5687.12 2929.29 5685.73 2929.29L5519.86 2929.29C5518.47 2929.29 5518.01 2928.59 5518.48 2927.21L5711.77 2358.43C5712.32 2356.81 5713.06 2356 5713.99 2356Z" fill="#F4F2F4" fill-rule="evenodd"/></g></svg>