<svg width="4671" height="729" xmlns="http://www.w3.org/2000/svg" xmlns:xlink="http://www.w3.org/1999/xlink" xml:space="preserve" overflow="hidden"><defs><clipPath id="clip0"><rect x="11380" y="2314" width="4671" height="729"/></clipPath></defs><g clip-path="url(#clip0)" transform="translate(-11380 -2314)"><path d="M14897 2416.66C14891.4 2416.66 14885.8 2417.7 14880.3 2419.8 14874.8 2421.9 14869.7 2424.69 14865 2428.19 14860.2 2431.92 14856 2436.17 14852.3 2440.95 14848.6 2445.73 14845.8 2450.8 14844 2456.16L14773.5 2663.45C14773 2664.85 14773.5 2665.55 14774.9 2665.55L15065.5 2665.55C15066.9 2665.55 15067.8 2664.85 15068.3 2663.45L15138.8 2456.16C15140.6 2450.8 15141.3 2445.73 15140.8 2440.95 15140.3 2436.17 15139 2431.92 15136.7 2428.19 15134.4 2424.69 15131.2 2421.9 15127.2 2419.8 15123.1 2417.7 15118.4 2416.66 15113 2416.66ZM12975.5 2416.65C12969.9 2416.65 12964.4 2417.7 12958.9 2419.8 12953.4 2421.9 12948.3 2424.69 12943.6 2428.19 12938.8 2431.92 12934.6 2436.17 12930.9 2440.95 12927.1 2445.73 12924.4 2450.8 12922.5 2456.16L12852.1 2663.45C12851.6 2664.85 12852.1 2665.55 12853.5 2665.55L13144.1 2665.55C13145.5 2665.55 13146.4 2664.85 13146.9 2663.45L13217.4 2456.16C13219.2 2450.8 13219.9 2445.73 13219.4 2440.95 13218.9 2436.17 13217.6 2431.92 13215.3 2428.19 13213 2424.69 13209.8 2421.9 13205.8 2419.8 13201.7 2417.7 13197 2416.65 13191.6 2416.65ZM15882.1 2389.35 16049.4 2389.35C16050.8 2389.35 16051.3 2390.05 16050.8 2391.45L15855.8 2965.2C15855.2 2966.83 15854.5 2967.65 15853.5 2967.65L15686.2 2967.65C15684.3 2967.65 15683.7 2966.83 15684.2 2965.2L15879.2 2391.45C15879.7 2390.05 15880.7 2389.35 15882.1 2389.35ZM14780.5 2389.35 15247.3 2389.35C15259.2 2389.35 15269.6 2391.63 15278.6 2396.18 15287.5 2400.73 15294.6 2406.85 15299.6 2414.55 15304.7 2422.26 15307.8 2431.36 15308.7 2441.86 15309.7 2452.36 15308.2 2463.56 15304.1 2475.47L15137.7 2965.2C15137.1 2966.83 15136.1 2967.65 15134.7 2967.65L14967.4 2967.65C14965.7 2967.65 14965.2 2966.83 14965.7 2965.2L15057.6 2694.95C15058.1 2693.55 15057.6 2692.85 15056.2 2692.85L14765.6 2692.85C14764.2 2692.85 14763.3 2693.55 14762.8 2694.95L14670.9 2965.2C14670.4 2966.83 14669.4 2967.65 14668 2967.65L14499.9 2967.65C14498.5 2967.65 14498.1 2966.83 14498.6 2965.2L14665.1 2475.47C14669.2 2463.56 14675.3 2452.36 14683.4 2441.86 14691.5 2431.36 14700.7 2422.26 14711 2414.55 14721.4 2406.85 14732.5 2400.73 14744.6 2396.18 14756.6 2391.63 14768.6 2389.35 14780.5 2389.35ZM14041.8 2389.35 14508.6 2389.35C14520.5 2389.35 14530.9 2391.57 14539.9 2396 14548.9 2400.44 14556.2 2406.04 14561.9 2412.8 14567.3 2419.57 14570.9 2426.86 14572.8 2434.68 14574.7 2442.5 14574.5 2449.79 14572.2 2456.56L14538.8 2554.93C14538.3 2556.33 14537.3 2557.03 14535.9 2557.03L14368.2 2557.03C14366.8 2557.03 14366.4 2556.33 14366.8 2554.93L14400.9 2454.81C14402.5 2449.91 14403.1 2445.18 14402.5 2440.63 14402 2436.08 14400.5 2432.06 14398.2 2428.56 14395.9 2425.06 14392.8 2422.2 14388.7 2419.98 14384.7 2417.76 14380 2416.66 14374.6 2416.66L14158.2 2416.66C14152.9 2416.66 14147.4 2417.7 14141.9 2419.81 14136.4 2421.91 14131.3 2424.71 14126.6 2428.21 14121.9 2431.71 14117.7 2435.85 14114 2440.63 14110.3 2445.42 14107.5 2450.49 14105.7 2455.86L14048.2 2624.94C14046.4 2630.31 14045.7 2635.38 14046.2 2640.17 14046.7 2644.95 14048 2649.09 14050.4 2652.6 14052.7 2656.1 14055.9 2658.9 14059.9 2661 14064 2663.1 14068.7 2664.15 14074.1 2664.15L14415.1 2664.15C14427 2664.15 14437.5 2666.42 14446.4 2670.97 14455.4 2675.52 14462.4 2681.65 14467.5 2689.35 14472.5 2697.29 14475.5 2706.45 14476.5 2716.83 14477.6 2727.22 14476.1 2738.36 14472 2750.26L14427.4 2881.54C14423.3 2893.44 14417.3 2904.58 14409.2 2914.97 14401.1 2925.35 14391.9 2934.39 14381.6 2942.1 14371.2 2950.03 14360 2956.27 14347.9 2960.82 14335.9 2965.37 14323.9 2967.65 14312 2967.65L13845.2 2967.65C13833.3 2967.65 13822.9 2965.4 13814.1 2960.91 13805.2 2956.42 13798.3 2950.25 13793.2 2942.42 13787.9 2934.74 13784.8 2925.7 13783.9 2915.32 13783 2904.93 13784.5 2893.79 13788.6 2881.89L13818.5 2794.02C13818.9 2792.62 13819.9 2791.92 13821.3 2791.92L13989 2791.92C13990.6 2791.92 13991.2 2792.62 13990.7 2794.02L13954.4 2900.79C13952.6 2906.16 13951.9 2911.23 13952.4 2916.02 13952.9 2920.8 13954.3 2924.94 13956.6 2928.44 13958.8 2932.18 13962 2935.09 13966 2937.19 13970.1 2939.29 13974.8 2940.35 13980.2 2940.35L14195.2 2940.35C14200.6 2940.35 14206 2939.29 14211.5 2937.19 14217 2935.09 14222.1 2932.16 14226.9 2928.43 14231.6 2924.92 14235.8 2920.77 14239.5 2915.98 14243.3 2911.19 14246.1 2906.11 14247.9 2900.73L14305.6 2731.06C14307.5 2725.46 14308.2 2720.26 14307.7 2715.46 14307.2 2710.67 14305.8 2706.52 14303.5 2703.02 14301.2 2699.52 14298 2696.71 14294 2694.61 14289.9 2692.5 14285.2 2691.45 14279.8 2691.45L13939.1 2691.45C13927.2 2691.45 13916.8 2689.18 13908 2684.63 13899.2 2680.08 13892.2 2673.95 13887.1 2666.25 13881.8 2658.55 13878.6 2649.45 13877.7 2638.94 13876.7 2628.44 13878.2 2617.24 13882.2 2605.34L13926.5 2475.11C13930.6 2463.21 13936.6 2452.07 13944.7 2441.68 13952.8 2431.3 13962.1 2422.14 13972.8 2414.2 13983.1 2406.5 13994.2 2400.44 14006.1 2396 14018 2391.57 14029.9 2389.35 14041.8 2389.35ZM13514.2 2389.35 13681.9 2389.35C13683.3 2389.35 13683.7 2390.05 13683.3 2391.45L13510 2901.11C13508.2 2906.48 13507.5 2911.56 13508 2916.35 13508.5 2921.14 13509.9 2925.28 13512.2 2928.79 13514.5 2932.29 13517.7 2935.09 13521.7 2937.19 13525.8 2939.29 13530.7 2940.34 13536.3 2940.34L13669 2940.34 13659.7 2967.65 13401.3 2967.65C13389.4 2967.65 13378.9 2965.37 13370 2960.82 13361 2956.27 13354 2950.15 13348.9 2942.45 13343.8 2934.74 13340.8 2925.7 13339.8 2915.32 13338.7 2904.93 13340.2 2893.79 13344.3 2881.88L13511 2391.45C13511.5 2390.05 13512.5 2389.35 13514.2 2389.35ZM12859.1 2389.35 13325.9 2389.35C13337.8 2389.35 13348.2 2391.63 13357.2 2396.18 13366.1 2400.73 13373.1 2406.85 13378.2 2414.55 13383.3 2422.26 13386.3 2431.36 13387.3 2441.86 13388.3 2452.36 13386.8 2463.56 13382.7 2475.46L13216.3 2965.2C13215.7 2966.83 13214.7 2967.65 13213.3 2967.65L13046 2967.65C13044.3 2967.65 13043.8 2966.83 13044.3 2965.2L13136.2 2694.95C13136.7 2693.55 13136.2 2692.85 13134.8 2692.85L12844.2 2692.85C12842.8 2692.85 12841.9 2693.55 12841.4 2694.95L12749.5 2965.2C12749 2966.83 12748 2967.65 12746.6 2967.65L12578.5 2967.65C12577.1 2967.65 12576.7 2966.83 12577.2 2965.2L12743.7 2475.46C12747.8 2463.56 12753.8 2452.36 12762 2441.86 12770.1 2431.36 12779.3 2422.26 12789.6 2414.55 12800 2406.85 12811.1 2400.73 12823.2 2396.18 12835.2 2391.63 12847.2 2389.35 12859.1 2389.35ZM15612.2 2389 15779.5 2389C15780.9 2389 15781.4 2389.7 15780.9 2391.1L15614.1 2881.89C15610 2893.79 15604 2904.99 15596 2915.49 15588 2925.99 15578.8 2935.09 15568.5 2942.8 15558 2950.5 15546.7 2956.62 15534.6 2961.17 15522.6 2965.72 15510.6 2968 15498.7 2968L15238.5 2968C15237.1 2968 15236.7 2967.3 15237.1 2965.9L15245.2 2942.1C15245.7 2940.7 15246.6 2940 15248 2940L15383.2 2940C15388.6 2940 15394 2938.95 15399.5 2936.84 15405 2934.74 15410.2 2931.94 15415.1 2928.44 15419.8 2924.94 15424 2920.8 15427.8 2916.02 15431.5 2911.23 15434.3 2906.16 15436.1 2900.79L15609.3 2391.1C15609.8 2389.7 15610.8 2389 15612.2 2389Z" fill="#F4F2F4" fill-rule="evenodd"/><path d="M11894.5 2314 12034.6 2314 12039.5 2314 12043.5 2314 12048.4 2314 12071.9 2314 12072 2314 12074.6 2314 12076.8 2314 12076.9 2314 12079.5 2314 12080.9 2314 12081.6 2314 12085.8 2314 12086.5 2314 12103.9 2314C12120.3 2314 12134.7 2317.13 12147 2323.39 12159.3 2329.66 12169.1 2338.09 12176.4 2348.69 12183.4 2359.28 12187.5 2371.81 12188.7 2386.26 12189.9 2400.71 12187.7 2416.13 12182.1 2432.51L12020.1 2907.01C12013.7 2925.81 12004.1 2943.5 11991.3 2960.08 11978.5 2976.66 11963.7 2991.04 11947.1 3003.2 11930.8 3015.36 11913.2 3025.03 11894.4 3032.22 11875.6 3039.41 11856.8 3043 11838 3043L11816.8 3043 11812.3 3043 11808.7 3043 11804.3 3043 11751 3043 11746.6 3043 11730.8 3043 11726.3 3043 11724.5 3043 11720 3043 11717.3 3043 11712.8 3043 11697 3043 11692.6 3043 11690.7 3043 11686.2 3043 11674.5 3043 11599 3043 11534.4 3043 11529.5 3043 11525.5 3043 11520.6 3043 11497.1 3043 11497 3043 11494.4 3043 11492.2 3043 11492.1 3043 11489.5 3043 11488.1 3043 11487.4 3043 11483.2 3043 11482.5 3043 11465.1 3043C11448.7 3043 11434.3 3039.87 11422 3033.61 11409.7 3027.34 11399.9 3018.91 11392.6 3008.32 11385.6 2997.72 11381.5 2985.19 11380.3 2970.74 11379.1 2956.29 11381.3 2940.87 11386.9 2924.49L11548.8 2449.99C11555.2 2431.19 11564.8 2413.5 11577.6 2396.92 11590.4 2380.34 11605.2 2365.96 11621.8 2353.8 11638.1 2341.64 11655.7 2331.97 11674.5 2324.78 11693.3 2317.59 11712.1 2314 11730.9 2314L11752.1 2314 11756.6 2314 11760.2 2314 11764.6 2314 11817.9 2314 11822.3 2314 11838.1 2314 11842.6 2314 11844.5 2314 11848.9 2314 11851.7 2314 11856.1 2314 11871.9 2314 11876.4 2314 11878.3 2314 11882.7 2314 11894.5 2314 11894.5 2314Z" fill="#BC142C" fill-rule="evenodd"/><path d="M359.875 327.197 406.726 327.197 531.233 327.197 578.084 327.197 495.975 85.6556C491.935 73.7691 485.879 62.6394 477.807 52.2677 469.734 41.8957 460.543 32.8638 450.234 25.1723 439.615 17.2475 428.365 11.071 416.484 6.64238 404.603 2.2138 392.717 0 380.827 0L333.977 0 125.232 0 102.708 0 78.3809 0 55.8564 0 0 0 9.26983 27.2698 46.562 27.2698 87.6759 27.2698 93.4125 27.2698 134.526 27.2698 218.403 27.2698C223.764 27.2698 229.191 28.3178 234.683 30.4136 240.174 32.5097 245.419 35.4221 250.417 39.1514 255.101 42.6441 259.305 46.7773 263.026 51.5517 266.747 56.3262 269.519 61.392 271.34 66.749ZM282.173 577 329.023 577 537.768 577 560.293 577 584.619 577 607.144 577 663 577 653.73 549.73 616.438 549.73 575.324 549.73 569.588 549.73 528.474 549.73 444.598 549.73C439.236 549.73 433.809 548.682 428.317 546.586 422.826 544.49 417.581 541.578 412.583 537.848 407.899 534.356 403.695 530.223 399.974 525.448 396.253 520.674 393.482 515.608 391.66 510.251L303.125 249.802 256.274 249.802 131.767 249.802 84.9162 249.802 167.025 491.344C171.065 503.231 177.121 514.36 185.193 524.732 193.266 535.104 202.457 544.136 212.766 551.827 223.385 559.752 234.635 565.929 246.516 570.357 258.397 574.786 270.283 577 282.173 577Z" fill="#F4F2F4" fill-rule="evenodd" transform="matrix(1 0 0 -1 11453 2967)"/><path d="M12493 2314 12493.4 2314 12495.3 2314 12499.8 2314 12511.6 2314 12523 2314 12274 3043 12244 3043Z" fill="#F4F2F4" fill-rule="evenodd"/></g></svg>