<svg width="1529" height="1377" xmlns="http://www.w3.org/2000/svg" xmlns:xlink="http://www.w3.org/1999/xlink" xml:space="preserve" overflow="hidden"><defs><clipPath id="clip0"><rect x="12951" y="2100" width="1529" height="1377"/></clipPath></defs><g clip-path="url(#clip0)" transform="translate(-12951 -2100)"><path d="M13923.5 2100 14188.2 2100 14197.5 2100 14205 2100 14214.4 2100 14258.6 2100 14258.8 2100 14263.7 2100 14268 2100 14268.1 2100 14273 2100 14275.6 2100 14277 2100 14285 2100 14286.3 2100 14319.2 2100C14350.2 2100 14377.3 2105.91 14400.6 2117.74 14423.8 2129.57 14442.4 2145.5 14456.2 2165.52 14469.4 2185.53 14477.2 2209.19 14479.4 2236.49 14481.7 2263.79 14477.5 2292.91 14467 2323.84L14160.8 3220.13C14148.7 3255.64 14130.5 3289.05 14106.3 3320.37 14082.1 3351.7 14054.3 3378.85 14022.8 3401.82 13992 3424.79 13958.8 3443.06 13923.2 3456.64 13887.6 3470.21 13852.1 3477 13816.6 3477L13776.5 3477 13768.1 3477 13761.3 3477 13752.9 3477 13652.3 3477 13643.8 3477 13614 3477 13605.6 3477 13602 3477 13593.6 3477 13588.4 3477 13580 3477 13550.2 3477 13541.7 3477 13538.2 3477 13529.7 3477 13507.5 3477 13365 3477 13242.8 3477 13233.5 3477 13226 3477 13216.6 3477 13172.4 3477 13172.2 3477 13167.3 3477 13163 3477 13162.9 3477 13158 3477 13155.4 3477 13154 3477 13146 3477 13144.7 3477 13111.8 3477C13080.8 3477 13053.7 3471.09 13030.4 3459.26 13007.2 3447.43 12988.6 3431.5 12974.8 3411.48 12961.6 3391.47 12953.8 3367.81 12951.6 3340.51 12949.3 3313.21 12953.5 3284.09 12964 3253.16L13270.1 2356.87C13282.2 2321.37 13300.3 2287.95 13324.5 2256.63 13348.7 2225.3 13376.6 2198.15 13408.1 2175.18 13438.8 2152.21 13472 2133.94 13507.6 2120.36 13543.2 2106.79 13578.7 2100 13614.2 2100L13654.3 2100 13662.7 2100 13669.5 2100 13678 2100 13778.6 2100 13787 2100 13816.8 2100 13825.3 2100 13828.8 2100 13837.3 2100 13842.4 2100 13850.9 2100 13880.7 2100 13889.1 2100 13892.7 2100 13901.1 2100 13923.5 2100 13923.5 2100Z" fill="#BC142C" fill-rule="evenodd"/><path d="M680.668 618.67 769.283 618.67 1004.78 618.67 1093.39 618.67 938.089 161.959C930.448 139.484 918.992 118.44 903.725 98.8286 888.457 79.2169 871.073 62.1393 851.573 47.5962 831.489 32.6119 810.211 20.9331 787.739 12.5595 765.267 4.18589 742.787 0 720.298 0L631.685 0 236.864 0 194.261 0 148.25 0 105.647 0 0 0 17.533 51.5621 88.0674 51.5621 165.83 51.5621 176.681 51.5621 254.444 51.5621 413.087 51.5621C423.228 51.5621 433.492 53.5438 443.881 57.5065 454.266 61.4699 464.186 66.9767 473.639 74.0281 482.5 80.6321 490.449 88.4472 497.488 97.4748 504.526 106.502 509.768 116.081 513.213 126.21ZM533.702 1091 622.315 1091 1017.14 1091 1059.74 1091 1105.75 1091 1148.35 1091 1254 1091 1236.47 1039.44 1165.93 1039.44 1088.17 1039.44 1077.32 1039.44 999.556 1039.44 840.913 1039.44C830.772 1039.44 820.508 1037.46 810.119 1033.49 799.734 1029.53 789.814 1024.02 780.361 1016.97 771.5 1010.37 763.551 1002.55 756.512 993.525 749.474 984.498 744.232 974.919 740.787 964.79L573.332 472.33 484.717 472.33 249.224 472.33 160.611 472.33 315.911 929.041C323.552 951.516 335.008 972.56 350.275 992.172 365.544 1011.78 382.927 1028.86 402.427 1043.4 422.511 1058.39 443.789 1070.07 466.261 1078.44 488.733 1086.81 511.213 1091 533.702 1091Z" fill="#F4F2F4" fill-rule="evenodd" transform="matrix(1 0 0 -1 13088 3334)"/></g></svg>